<?xml version="1.0" encoding="UTF-8" standalone="no"?>
<!-- Created with Inkscape (http://www.inkscape.org/) -->

<svg
   version="1.1"
   id="svg2"
   width="2048"
   height="1152"
   viewBox="0 0 2048 1152"
   xmlns="http://www.w3.org/2000/svg"
   xmlns:svg="http://www.w3.org/2000/svg">
  <defs
     id="defs6" />
  <g
     id="g8">
    <path
       style="fill:#000000"
       d="m 1025.8916,1146.8842 c -1.925,-0.2111 -9.125,-0.8659 -16,-1.4553 -98.00528,-8.4016 -193.43671,-43.0345 -275,-99.8 -64.11342,-44.621 -119.86303,-103.71249 -160.29134,-169.89997 -54.9997,-90.04315 -83.70865,-191.99075 -83.70865,-297.25564 0,-139.52518 50.94406,-273.66711 143.55584,-378 21.17432,-23.85418 51.78642,-52.39699 78.44415,-73.14155 71.60418,-55.721069 164.03765,-95.937295 253.64476,-110.356512 36.60454,-5.890252 51.72944,-7.0062316 94.35524,-6.961922 39.0388,0.04058 52.3059,0.867953 81,5.051379 201.1872,29.331863 371.5067,163.636565 447.066,352.532075 27.0084,67.52021 40.2568,136.91877 40.2568,210.87653 0,79.56975 -14.6734,150.88238 -46.4389,225.69372 -42.4852,100.05738 -118.1196,189.92023 -210.8839,250.55569 -76.9767,50.3158 -161.2286,80.0974 -255.5,90.3146 -14.0295,1.5206 -81.0082,2.8874 -90.5,1.8469 z m 80,-39.9509 c 32.9638,-2.8793 76.3713,-10.9254 102,-18.9068 28.8416,-8.9821 34.9521,-11.1287 53.5,-18.7944 68.3718,-28.2575 128.0972,-68.5899 179.0001,-120.87782 79.0084,-81.15845 130.2654,-186.34068 145.4061,-298.38099 3.6297,-26.8598 4.4863,-40.51115 4.4863,-71.5 0,-30.98885 -0.8566,-44.6402 -4.4863,-71.5 -19.103,-141.36126 -95.2384,-270.01055 -209.9062,-354.68749 -36.551,-26.99124 -72.1592,-47.07224 -114.5,-64.571362 -18.5479,-7.665691 -24.6584,-9.812287 -53.5,-18.794331 -26.1754,-8.151697 -69.2655,-16.07208 -103.5,-19.0243 -23.7959,-2.052045 -79.6429,-1.531748 -100.0181,0.931816 -67.6013,8.173667 -121.94914,24.011642 -178.9819,52.158677 -89.82172,44.32916 -163.28668,111.01849 -216.45009,196.48699 -37.28765,59.94575 -63.21498,130.59086 -73.46736,200.17918 -4.27188,28.9955 -5.02013,40.74374 -5.02013,78.82082 0,38.07708 0.74825,49.82532 5.02013,78.82082 5.66823,38.47326 16.52338,78.83691 31.1053,115.66154 58.08308,146.6808 176.86594,259.07255 326.52689,308.95815 36.39884,12.1326 78.25125,20.9853 115.78526,24.4912 6.325,0.5908 13.075,1.2258 15,1.4112 11.2429,1.0827 66.2818,0.4901 82,-0.8829 z m -87.5,-10.1096 c -13.1795,-1.02 -40.56202,-4.7678 -54.5,-7.4594 -28.81824,-5.5652 -67.71821,-16.327 -84.5,-23.3772 -1.65,-0.6932 -5.25,-2.0623 -8,-3.0424 -2.75,-0.9802 -7.8439,-3.0622 -11.31977,-4.6268 -3.47587,-1.5645 -6.50472,-2.8446 -6.73078,-2.8446 -0.40178,0 -12.48191,-5.5523 -23.44945,-10.7779 -8.76324,-4.1753 -26.64441,-13.9644 -37.5,-20.5294 C 707.263,972.68386 638.73424,898.71302 595.39131,811.52133 c -9.0802,-18.26636 -17.8733,-38.23458 -20.49765,-46.54804 -0.69449,-2.2 -1.58358,-4.45 -1.97575,-5 -0.8272,-1.16008 -9.53869,-27.82404 -13.39528,-41 -8.12224,-27.74942 -15.38529,-68.34239 -17.62401,-98.5 -1.29147,-17.39717 -1.29147,-66.60283 0,-84 2.23872,-30.15761 9.50177,-70.75058 17.62401,-98.5 3.85659,-13.17596 12.56808,-39.83992 13.39528,-41 0.39217,-0.55 1.28126,-2.8 1.97575,-5 2.62435,-8.31346 11.41745,-28.28168 20.49765,-46.54804 43.34293,-87.19169 111.87169,-161.16253 197.00029,-212.64469 10.85559,-6.565 28.73676,-16.35405 37.5,-20.52938 10.96754,-5.22559 23.04767,-10.77789 23.44945,-10.77789 0.22606,0 3.25491,-1.28009 6.73078,-2.844643 3.47587,-1.56455 8.56977,-3.64657 11.31977,-4.62673 2.75,-0.98015 6.35,-2.34924 8,-3.042427 16.78179,-7.050218 55.68176,-17.812031 84.5,-23.377216 34.86824,-6.73351 45.8371,-7.598885 96,-7.573782 41.1906,0.02061 47.1574,0.235188 63,2.265575 84.0112,10.766907 162.3676,40.327413 230.5,86.957743 10.3038,7.05201 25.3786,17.99664 26.5,19.2396 0.275,0.3048 4.1,3.41641 8.5,6.91468 21.2207,16.8718 57.5827,52.69222 70.6391,69.5872 1.2751,1.65 2.9039,3.60806 3.6195,4.35125 5.9471,6.17611 29.2948,38.80926 39.842,55.68725 9.6885,15.50395 24.5592,43.37988 31.1868,58.4615 11.7613,26.76362 17.9052,43.40844 25.0999,68 14.4196,49.28601 21.0859,95.76032 21.0859,147 0,65.75418 -11.2986,126.12891 -35.4632,189.5 -2.4174,6.33953 -4.9661,12.40072 -10.7226,25.5 -6.6276,15.08162 -21.4983,42.95755 -31.1868,58.4615 -10.5472,16.87799 -33.8949,49.51114 -39.842,55.68725 -0.7156,0.74319 -2.3444,2.70125 -3.6195,4.35125 -13.0564,16.89498 -49.4184,52.7154 -70.6391,69.5872 -4.4,3.49827 -8.225,6.60988 -8.5,6.91468 -1.1214,1.24296 -16.1962,12.18753 -26.5,19.23963 -67.9799,46.526 -146.9023,76.3344 -230,86.8693 -14.5893,1.8496 -22.8849,2.1886 -58.5,2.3909 -22.825,0.1296 -43.75,0.062 -46.5,-0.1513 z m 29.5,-46.3504 v -19 h 18.6203 18.6204 l -0.4087,19 -0.4087,19 h 5.6195 5.6194 l -0.081,-40.4995 -0.081,-40.49955 -5.8015,-4.8e-4 -5.8015,-4.8e-4 0.7023,17.52261 0.7023,17.5226 -18.9008,-0.2726 -18.9008,-0.2726 0.382,-17.25 0.3821,-17.25001 -5.8821,-2.5e-4 -5.882,-2.4e-4 v 40.4994 40.4993 l 5.75,9e-4 5.75,9e-4 v -19 z m -60.54926,1.75 c 2.3471,-15.634 9.71,-60.19386 9.9984,-60.50976 0.1304,-0.1429 4.69516,0.6155 10.14396,1.6852 15.6534,3.0734 14.6747,3.1565 15.6177,-1.3264 0.4514,-2.1455 0.6656,-4.05597 0.4761,-4.24549 -0.8983,-0.89828 -60.15635,-10.274 -60.74867,-9.61156 -0.96953,1.08432 -1.9475,8.2585 -1.12536,8.25544 0.37792,-10e-4 6.19302,0.7341 12.92243,1.63446 11.54964,1.54527 12.21044,1.7556 11.79074,3.75255 -0.2445,1.1636 -1.1665,7.0655 -2.0489,13.11556 -0.8824,6.05 -3.39744,20.8566 -5.58883,32.9036 -2.19143,12.0469 -3.76437,22.477 -3.49543,23.1779 0.4546,1.1846 3.07193,1.9054 8.23796,2.2687 1.9663,0.1382 2.2614,-0.7194 3.8199,-11.1002 z m 182.93696,8.2061 c 8.054,-3.0133 15.7325,-10.3969 20.1884,-19.4129 4.8515,-9.8162 5.6228,-19.3653 2.5467,-31.5294 -3.7009,-14.63516 -10.2752,-22.95224 -22.6927,-28.7085 -7.9202,-3.67151 -18.9774,-3.79546 -27.9227,-0.31301 -7.5522,2.9401 -16.514,11.59605 -20.0878,19.40245 -7.5263,16.43946 -4.1988,38.21046 7.8354,51.26616 10.4779,11.3671 25.3738,14.8172 40.1327,9.2952 z m -20.4779,-8.3272 c -12.3528,-4.4156 -20.0696,-17.7832 -20.2792,-35.1289 -0.094,-7.7675 0.2489,-9.7532 2.5029,-14.5001 3.01,-6.33856 7.9563,-11.70286 12.5844,-13.64768 4.6945,-1.97277 14.9664,-1.6787 19.9191,0.57025 12.6122,5.72707 20.5554,21.92603 19.0145,38.77723 -0.943,10.3131 -7.6048,20.7115 -15.3392,23.9432 -4.0522,1.6931 -13.6471,1.6858 -18.4025,-0.014 z m -224.46603,-4.3789 c 1.96962,-8.1994 15.81609,-48.82936 22.34354,-65.56305 2.08827,-5.35347 2.68016,-7.94535 1.88019,-8.23333 -5.9892,-2.15604 -10.00533,-3.43033 -10.13039,-3.21431 -0.083,0.14338 -2.49739,7.53517 -5.36531,16.42621 l -5.21441,16.16558 -17.20378,-5.97396 c -9.46207,-3.2857 -17.4007,-6.17091 -17.64139,-6.4116 -0.24069,-0.24069 2.16811,-7.43189 5.3529,-15.98043 3.18478,-8.54855 5.47618,-15.86284 5.09198,-16.25397 -0.38419,-0.39113 -2.79768,-1.42281 -5.36331,-2.29262 l -4.66477,-1.58146 -7.64501,23.08146 c -4.20475,12.69481 -10.19499,29.78778 -13.31164,37.98438 -3.11665,8.1965 -5.30793,15.2242 -4.8695,15.6171 0.43842,0.3928 2.95639,1.4291 5.59548,2.3029 3.61211,1.1959 4.89046,1.2906 5.17092,0.3829 0.20491,-0.6632 2.91095,-8.9396 6.01342,-18.3919 l 5.64085,-17.18616 15.68823,5.54736 c 8.62853,3.0511 16.48835,5.7781 17.46627,6.0601 2.11252,0.6092 2.3862,-0.4403 -5.39552,20.6903 -3.22566,8.759 -5.72251,16.0678 -5.54854,16.2418 0.67512,0.6751 8.25235,3.1955 9.80761,3.2622 0.99343,0.043 1.90242,-1.0153 2.30218,-2.6795 z m 336.40013,-16.2552 c 7.53,-3.5136 13.324,-8.6164 16.4583,-14.4948 2.8632,-5.37 3.005,-19.44466 0.2771,-27.50001 -1.8257,-5.39111 -17.1544,-43.37127 -18.4307,-45.66612 -0.4677,-0.8408 -2.0899,-0.55583 -5.815,1.02151 l -5.1665,2.18761 7.9653,17.8175 c 16.3736,36.62581 17.8312,48.15181 7.0463,55.72151 -8.8257,6.1947 -16.9621,7.4071 -23.6004,3.5168 -7.4872,-4.3878 -11.7873,-12.0267 -24.0434,-42.71153 l -7.0349,-17.61272 -5.25,1.99664 c -2.8875,1.09815 -5.25,2.33064 -5.25,2.73887 0,0.64004 14.1905,33.93064 18.7511,43.98994 4.5845,10.1117 13.6896,19.7185 20.8825,22.0331 5.3447,1.7198 16.0035,0.3245 23.2103,-3.0383 z M 839.91368,1013.42 c 0.69559,-1.6793 4.5267,-8.6429 8.51358,-15.47476 l 7.24887,-12.42139 -4.51822,-2.52528 c -2.48502,-1.3889 -4.79904,-2.49441 -5.14226,-2.45669 -0.34323,0.0377 -3.49945,5.84942 -7.01384,12.91486 -7.26755,14.61096 -6.05526,14.06926 -16.66448,7.44676 -14.71275,-9.18396 -19.9192,-26.27346 -12.70267,-41.69483 5.9532,-12.72171 15.68671,-20.05771 26.72292,-20.14067 8.10192,-0.0609 15.04417,2.64032 23.66404,9.20765 l 7.06796,5.38494 2.86037,-3.34365 c 1.5732,-1.83901 2.87866,-3.86782 2.90101,-4.50848 0.0582,-1.66932 -8.56686,-7.76155 -15.89497,-11.22719 -3.44447,-1.62898 -9.33204,-3.51031 -13.0835,-4.18073 -17.64025,-3.15249 -36.58809,7.25325 -45.17271,24.80788 -3.10468,6.34874 -3.30818,7.41077 -3.30818,17.26487 0,9.33849 0.30107,11.14259 2.72167,16.30897 4.84546,10.34188 17.67265,20.61464 31.72051,25.40374 8.41647,2.8693 8.57923,2.8569 10.0799,-0.766 z m 486.53082,-14.80896 c 15.0464,-7.31252 25.4371,-17.23729 27.0505,-25.83738 2.2452,-11.96767 -7.3396,-24.2489 -20.1765,-25.85277 -3.243,-0.40519 -10.0532,-0.0327 -17.2037,0.94086 -17.3286,2.35945 -18.7898,2.24494 -22.8232,-1.78846 -5.797,-5.79695 -3.9623,-12.03313 5.3625,-18.22763 4.619,-3.0684 7.8166,-4.65112 16.9522,-8.39072 2.1466,-0.87873 2.1668,-1.02286 0.6572,-4.69411 -0.8566,-2.08315 -1.9326,-4.18197 -2.3912,-4.66405 -0.9665,-1.01612 -14.1323,5.84929 -21.2823,11.09788 -12.1791,8.94028 -14.513,22.52734 -5.6076,32.64447 6.3925,7.26229 6.6297,7.29246 39.9092,5.07768 7.4012,-0.49255 8.9139,-0.30495 11.7015,1.45118 4.2543,2.68015 6.6225,7.35375 5.7467,11.34113 -1.406,6.4016 -13.9485,15.95194 -25.9482,19.75802 -2.2,0.6978 -4.3075,1.4427 -4.6832,1.6552 -1.0952,0.6194 2.2478,9.35086 3.5801,9.35086 0.6649,0 4.7851,-1.738 9.156,-3.86216 z M 764.52255,956.72329 c 10.05007,-13.83984 22.52232,-30.03281 33.24008,-43.15626 l 8.49866,-10.40626 -3.93484,-3.32886 c -2.16417,-1.83088 -4.38485,-3.32595 -4.93485,-3.32239 -0.55,0.004 -2.3234,1.90936 -3.9409,4.23512 -6.81445,9.79835 -24.65652,33.16026 -34.72675,45.47026 -5.95779,7.28289 -10.81401,13.58289 -10.79159,14 0.0302,0.56097 7.50738,6.80608 8.62156,7.20087 0.0893,0.0316 3.67516,-4.77998 7.96863,-10.69248 z m 636.08155,-13.5 c 7.599,-6.7375 15.7223,-13.86817 18.0519,-15.84593 2.3296,-1.97776 4.2356,-3.96028 4.2356,-4.40561 0,-0.44532 -1.1532,-2.32157 -2.5626,-4.16944 l -2.5626,-3.35977 -11.6874,10.94964 c -6.4281,6.0223 -13.0036,11.97382 -14.6124,13.22561 l -2.925,2.27596 -9.8099,-10.46023 c -5.3954,-5.75313 -9.8167,-10.76101 -9.825,-11.12863 -0.01,-0.36762 4.913,-4.81384 10.9363,-9.8805 l 10.9513,-9.21209 -2.57,-3.36951 c -1.4136,-1.85322 -2.7707,-3.3695 -3.016,-3.3695 -0.2452,0 -5.159,4.30677 -10.9195,9.57059 -5.7605,5.26383 -10.8283,9.42633 -11.2617,9.25 -1.7016,-0.69226 -16.9318,-18.34118 -16.471,-19.08678 0.2698,-0.4365 6.1931,-5.5616 13.163,-11.3891 6.9699,-5.8275 12.8106,-10.9533 12.9794,-11.39067 0.1687,-0.43736 -0.9859,-2.24199 -2.5658,-4.01029 l -2.8727,-3.21507 -17.2332,15.23872 c -9.4782,8.3813 -17.0986,15.60958 -16.9342,16.06284 0.1645,0.45326 5.9878,7.04438 12.9408,14.64693 12.4333,13.59495 29.0996,32.72195 35.7887,41.07283 1.8723,2.3375 3.7555,4.25 4.1849,4.25 0.4294,0 6.9981,-5.5125 14.5971,-12.25 z m -670.24883,-2.71208 2.83786,-2.96209 -13.90076,-13.51465 -13.90077,-13.51466 25.61208,-25.42588 25.61209,-25.42589 -3.9717,-3.97169 -3.97169,-3.97169 -7.58032,8.12432 c -4.16918,4.46837 -17.00072,17.55164 -28.51454,29.07393 l -20.93421,20.94961 17.37414,16.75392 c 9.55578,9.21465 17.62746,16.77482 17.93706,16.80038 0.3096,0.0256 1.83994,-1.28647 3.40076,-2.91561 z m 346.11033,-33.59518 c 5.5219,-1.51953 7.6587,-3.36493 9.1014,-7.86038 0.8175,-2.54727 2.3257,-3.47644 11.8805,-7.31951 23.4077,-9.41488 50.7629,-17.43944 75.5812,-22.17152 18.7106,-3.56753 38.2648,-5.09133 65.3345,-5.09133 h 25.5284 v -8.39301 c 0,-9.64771 0.038,-9.60699 -9.0014,-9.60699 h -5.8379 l -1.559,-4.75 c -2.179,-6.63866 -4.3132,-17.48647 -5.0662,-25.75 -0.3508,-3.85 -0.865,-8.07884 -1.1427,-9.39743 l -0.5049,-2.39743 -13.194,0.59993 c -30.8561,1.40303 -73.9649,11.94472 -107.6939,26.33512 -5.775,2.4639 -16.9797,7.82781 -24.8994,11.91981 -7.9196,4.092 -14.5571,7.44 -14.75,7.44 -0.1928,0 -0.3506,-49.725 -0.3506,-110.5 v -110.5 h 56.134 c 41.4293,0 57.2059,-0.32116 60.226,-1.226 9.3228,-2.79318 15.6573,-13.93208 13.5393,-23.80811 -1.3822,-6.44461 -5.7062,-12.20993 -11.1252,-14.83318 -4.3379,-2.09998 -5.2747,-2.13271 -61.0386,-2.13271 h -56.6331 l -0.3012,-50.25 c -0.2968,-49.51069 -0.3334,-50.31024 -2.4923,-54.34468 -3.8088,-7.11796 -11.6259,-12.37637 -18.4332,-12.39974 -3.2351,-0.0111 -10.4111,3.13271 -13.2008,5.78327 -6.3761,6.05809 -6.1271,3.83062 -6.6749,59.71115 l -0.5,51 -57.49996,0.5 c -57.40288,0.49916 -57.50722,0.50384 -61.74892,2.76975 -5.98647,3.19797 -9.53062,8.94619 -10.06421,16.323 -0.69323,9.58376 3.0096,16.33132 11.20249,20.414 l 5.00329,2.49325 h 56.80365 56.80366 v 110.5 c 0,71.87645 -0.3443,110.5 -0.985,110.5 -0.5417,0 -3.1969,-1.36104 -5.9005,-3.02454 -8.3876,-5.16099 -32.9725,-16.51914 -47.11446,-21.7668 -32.56482,-12.0838 -67.1215,-19.76766 -94.08803,-20.92098 l -13.59994,-0.58164 -0.68451,8.20782 c -0.78566,9.42074 -2.71747,20.14773 -5.11135,28.3824 l -1.65813,5.70374 -6.17904,0.0153 c -8.76828,0.0217 -9.17904,0.45568 -9.17904,9.69716 v 7.78753 l 31.5,0.60949 c 46.26281,0.89514 73.65923,5.53001 114.5,19.37088 19.9033,6.74518 32.5,12.37127 32.5,14.51548 0,2.83925 3.7716,6.77313 7.7656,8.09969 8.8678,2.94532 24.7898,3.10414 34.8084,0.3472 z m -23.6885,-18.12324 c -39.934,-24.14178 -96.96027,-39.61585 -154.3855,-41.89245 -17.99956,-0.71358 -17.95712,-0.7044 -16.43206,-3.554 1.14746,-2.14405 1.29795,-2.15326 25.79313,-1.57936 30.43555,0.71307 50.6032,3.44068 83.13897,11.2443 4.6699,1.12007 -0.4759,-1.45364 -7.2164,-3.6093 -23.10679,-7.38974 -54.4092,-12.55243 -82.53364,-13.61225 -14.64977,-0.55204 -16.25,-0.78667 -16.25,-2.3826 0,-4.15522 1.02484,-4.93769 5.85431,-4.46983 2.55513,0.24753 8.69569,0.7241 13.64569,1.05905 17.14445,1.16011 35.80608,4.23498 61.33813,10.10666 8.43598,1.94004 15.51381,3.35174 15.72841,3.13711 0.7103,-0.71026 -21.83219,-7.66703 -36.14897,-11.15584 -14.60859,-3.55993 -31.8122,-6.62392 -48.76541,-8.6852 l -9.84784,-1.19737 0.60825,-3.04129 c 0.33455,-1.67271 0.71608,-3.1209 0.84785,-3.21819 0.62051,-0.45816 19.54431,1.77584 30.73958,3.62888 34.00406,5.62834 69.57184,17.16395 100.1404,32.47831 12.8867,6.456 26.2306,14.20462 34.4717,20.01719 l 6.1122,4.31098 11.3322,-7.48535 c 34.9726,-23.10057 83.9765,-41.69935 129.9435,-49.31828 10.248,-1.69858 30.1894,-4.11232 30.6064,-3.70465 0.059,0.0572 0.3847,1.56648 0.725,3.35398 0.4634,2.43457 0.2614,3.25 -0.8052,3.25 -3.2839,0 -25.8399,3.17254 -36.0262,5.06717 -19.9307,3.70703 -58.5363,14.22984 -57.1804,15.58576 0.2091,0.20913 9.3353,-1.6167 20.2803,-4.0574 10.9451,-2.4407 26.222,-5.381 33.9487,-6.534 15.2586,-2.27693 39.574,-4.18523 40.5723,-3.18415 0.3415,0.34244 0.9009,1.81362 1.2431,3.26928 l 0.6222,2.64667 -9.7431,0.10442 c -20.8009,0.22295 -53.2523,4.55379 -75.0681,10.01833 -11.0966,2.77951 -23.6803,6.92944 -22.994,7.58303 0.1754,0.16708 5.8978,-0.97901 12.7163,-2.54686 6.8185,-1.56786 20.7685,-4.07698 31,-5.57584 16.0051,-2.34466 21.9539,-2.73574 42.6027,-2.8008 l 24,-0.0756 0.3196,2.25 c 0.3083,2.17093 0.041,2.25 -7.6048,2.25 -23.3929,0 -63.7492,5.48768 -89.2148,12.13151 -28.4315,7.4176 -56.0937,18.75848 -74.1145,30.38525 l -6.6145,4.26759 -7.3855,-4.46485 z m 2.8901,-27.10891 -3.7244,-2.71059 -0.026,-121.25 -0.025,-121.25 -60.74996,-0.0147 c -65.11107,-0.0158 -64.2505,0.0497 -67.14798,-5.11249 -1.20241,-2.14225 -1.23973,-3.12618 -0.21264,-5.60582 2.42748,-5.86044 1.1035,-5.7416 67.36062,-6.04664 l 60.74996,-0.27969 0.076,-52.72031 c 0.082,-56.81469 0.2166,-58.38256 5.2587,-61.22031 2.3747,-1.33653 2.9649,-1.33285 5.4152,0.0337 4.9948,2.78573 5.1328,4.41115 5.1936,61.18656 l 0.056,52.72031 60.75,0.27969 c 55.504,0.25554 61.0245,0.42986 63.9291,2.01872 3.65,1.99658 4.7492,4.53435 3.8121,8.80082 -1.3307,6.059 -0.2122,5.96015 -67.4415,5.96015 h -61.0497 l -0.012,121.25 -0.012,121.25 -3.7376,2.5 c -2.0557,1.375 -3.9626,2.59477 -4.2376,2.71059 -0.275,0.11583 -2.176,-1.00917 -4.2244,-2.5 z m -19.7756,-41.71059 c 0,-13.22396 -0.3928,-23.5 -0.8982,-23.5 -0.9512,0 -29.3664,30.41922 -29.9351,32.04634 -0.1834,0.52451 0.2666,0.96482 1,0.97847 0.7333,0.0136 7.4083,3.13052 14.8333,6.92639 7.425,3.79586 13.8375,6.9347 14.25,6.97519 0.4125,0.0405 0.75,-10.50139 0.75,-23.42639 z m 70.5,0.78639 c 6.6,-4.38252 17.625,-11.25508 24.5,-15.27235 6.875,-4.01727 13.0507,-7.8056 13.7237,-8.41851 0.9644,-0.87825 0.9282,-4.71486 -0.1707,-18.10496 -0.7669,-9.34481 -2.1746,-28.24057 -3.1281,-41.99057 -0.9536,-13.75 -1.8526,-25.15091 -1.998,-25.33535 -0.8328,-1.0568 -42.6547,29.21636 -53.8578,38.98543 -0.9415,0.821 -1.8136,82.64446 -0.8966,84.12871 0.2646,0.42833 2.5841,-0.75188 5.1543,-2.6227 2.5703,-1.87081 10.0732,-6.98718 16.6732,-11.3697 z M 972.05932,777.72329 c 14.19712,-21.16046 37.01598,-50.15177 55.68088,-70.74243 l 8.1514,-8.99244 v -32.25756 -32.25757 h -6.8382 -6.8383 l -6.4117,8.2178 c -15.6165,20.01518 -27.94326,38.6036 -38.83893,58.56775 l -5.91255,10.83362 -3.07084,34.44041 c -1.68896,18.94223 -3.32761,36.35292 -3.64143,38.69042 -0.31383,2.3375 -0.32809,4.25 -0.0317,4.25 0.2964,0 3.78451,-4.8375 7.75136,-10.75 z m 139.50248,-139.206 9.8298,-5.01167 -18.75,-0.0162 -18.75,-0.0161 v 11.02579 11.0258 l 8.9202,-5.99796 c 4.9062,-3.29888 13.3437,-8.25321 18.75,-11.00963 z m 18.3073,-56.294 c -0.076,-4.20114 -2.8413,-34.94708 -3.1733,-35.2791 -1.0455,-1.04558 -39.6351,23.82839 -41.4015,26.68652 -0.9355,1.51375 -1.5421,7.03243 -0.9444,8.59258 0.3636,0.94885 5.9073,1.25 23.0103,1.25 17.3705,0 22.5262,-0.28632 22.5089,-1.25 z m -140.24466,-9.25 c 8.8225,-13.43553 20.59296,-27.57022 34.14226,-41 l 12.1067,-12 0.031,-17.5 c 0.036,-20.24673 0.7441,-22.79962 8.2315,-29.67409 9.4978,-8.72031 23.1105,-8.45527 32.5066,0.63291 1.7881,1.72946 3.9515,4.49901 4.8076,6.15456 l 1.5566,3.01008 3.1924,-2.09109 c 24.084,-15.77557 29.0754,-18.38847 39.6924,-20.77811 18.3595,-4.13229 34.6046,-10.42501 42.8325,-16.59167 15.742,-11.79836 8.3107,-25.81589 -18.9631,-35.76962 -52.847,-19.28675 -153.72366,-17.4179 -197.54593,3.65974 -17.95433,8.63569 -22.58177,18.89473 -12.95689,28.72546 7.36351,7.521 18.69367,12.5312 41.13342,18.1892 l 13.00004,3.27784 -0.2479,4.3774 c -0.2724,4.81065 -5.0769,59.00485 -8.2339,92.87739 -2.1367,22.92599 -2.2468,24.56481 -1.6068,23.91667 0.2263,-0.22917 3.0709,-4.46667 6.3214,-9.41667 z M 868.3916,397.89539 c 82.39919,-7.45476 84.77107,-7.70994 85.2539,-9.1721 0.27478,-0.83214 -0.70152,-1.25117 -2.92057,-1.25351 -1.83333,-0.002 -23.58333,-2.03514 -48.33333,-4.51824 -63.52433,-6.37323 -107.49401,-10.48283 -111,-10.37455 -2.66156,0.0822 -2.49234,0.23972 1.5,1.3963 4.14532,1.2009 4.26354,1.32071 1.5,1.52014 l -3,0.21649 3,0.76337 c 1.65,0.41985 2.325,0.81579 1.5,0.87986 -1.26378,0.0981 -1.45204,2.05737 -1.19543,12.44115 0.2967,12.00628 0.24504,12.35487 -2,13.494 -3.17869,1.61287 3.58596,1.13093 75.69543,-5.39291 z m 448.5,5.75761 c -1.2171,-0.55151 -1.5,-3.03736 -1.5,-13.17971 0,-7.17688 0.4258,-12.81287 1,-13.23469 0.5886,-0.43242 0.3829,-0.74728 -0.5,-0.76531 -1.3333,-0.0272 -1.3333,-0.13833 0,-1 1.2478,-0.80637 1.1637,-0.98377 -0.5,-1.05497 l -2,-0.0856 2,-0.85943 c 1.3253,-0.5695 1.494,-0.88027 0.5,-0.92121 -1.8355,-0.0756 -31.8951,2.74789 -78.5,7.37346 -19.25,1.91058 -45.125,4.43793 -57.5,5.61633 -12.375,1.1784 -23.175,2.36764 -24,2.64275 -4.6395,1.54711 4.0506,2.54649 86,9.89022 9.625,0.86252 28.75,2.60519 42.5,3.87259 25.927,2.38982 35.0687,2.86957 32.5,1.70557 z m -305,-16.74754 c 4.675,-0.76849 10.3801,-1.40511 12.678,-1.41471 l 4.1781,-0.0175 0.5463,-5.25 c 0.3004,-2.8875 0.7958,-11.55 1.1008,-19.25 0.305,-7.7 0.8088,-16.1375 1.1195,-18.75 l 0.565,-4.75 h -3.162 c -4.5633,0 -25.3908,3.08745 -26.2628,3.89319 -0.4055,0.3746 -1.4186,8.98938 -2.2514,19.14395 -0.83276,10.15457 -1.79836,20.88916 -2.14576,23.85463 l -0.6316,5.39178 2.88296,-0.72706 c 1.5856,-0.39988 6.7079,-1.35583 11.3829,-2.12432 z m 102.2616,-10.18217 c -0.7092,-7.0125 -2.0729,-17.7 -3.0305,-23.75 l -1.741,-11 -4.9139,-1.21392 c -5.712,-1.41105 -23.6582,-3.53741 -24.3147,-2.88092 -0.2456,0.24558 0.1576,10.94238 0.896,23.77067 l 1.3425,23.32417 7,0.70457 c 3.85,0.38751 10.6,1.34516 15,2.1281 4.4,0.78293 8.6865,1.47838 9.5255,1.54543 1.3559,0.10835 1.3821,-1.29575 0.2361,-12.6281 z m -40.9702,4.25 c -0.1148,-1.65 -0.5018,-12.3375 -0.8601,-23.75 l -0.6513,-20.75 h -15.8104 -15.8104 l -0.5406,6.25 c -0.2973,3.4375 -0.7724,14.24784 -1.0558,24.02298 l -0.5154,17.77298 17.7263,-0.27298 17.7263,-0.27298 z m 62.7086,-14.57205 c 13.2736,-3.54234 27.8092,-10.06548 33.4344,-15.00442 10.8511,-9.52734 9.0236,-19.40579 -5.4034,-29.20702 -3.4213,-2.32428 -98.5283,-73.09761 -104.6775,-77.89511 -0.7561,-0.58991 -6.3741,2.80438 -16.5,9.96892 -8.4444,5.97487 -34.0285,24.04962 -56.85346,40.16613 -43.45545,30.68343 -46.30175,32.86513 -48.58932,37.24389 -5.36845,10.27604 2.87847,20.67157 22.97255,28.95771 8.19356,3.37875 25.53287,8.2592 26.36977,7.42225 0.3192,-0.31917 -0.1092,-0.5803 -0.952,-0.5803 -0.8427,0 -4.70844,-1.58892 -8.59025,-3.53094 -27.16833,-13.59175 -11.49584,-29.84274 36.28921,-37.62871 17.9508,-2.92486 60.9848,-3.20754 79,-0.51892 26.8995,4.01453 44.417,10.26427 51.5542,18.39303 2.721,3.09909 3.0923,4.15685 2.6407,7.52343 -0.289,2.15454 -1.3505,4.82905 -2.3589,5.94337 -2.5691,2.83877 -9.5262,6.76684 -16.7238,9.44244 -8.5982,3.19624 -5.1127,2.90712 8.3878,-0.69575 z M 830.86321,241.94336 c 26.14935,-13.37572 34.51718,-21.87047 34.52485,-35.04849 0.005,-8.01413 -3.92409,-14.8361 -10.50809,-18.24644 -3.89504,-2.01752 -5.40687,-2.2455 -11.43655,-1.7246 l -6.94817,0.60026 2.07321,-2.2754 c 5.05321,-5.54602 5.99059,-13.58661 2.40361,-20.61767 -3.87112,-7.58802 -10.52865,-10.29873 -20.20312,-8.226 -4.57366,0.9799 -32.0354,14.53848 -37.41765,18.47408 -1.54446,1.12934 -1.0948,2.32071 4.96994,13.16793 3.66742,6.55944 12.05594,22.61376 18.64117,35.67626 6.58522,13.0625 12.22439,23.75 12.53149,23.75 0.3071,0 5.42329,-2.48847 11.36931,-5.52993 z m -2.7301,-13.74968 c -1.79928,-2.30113 -10.24151,-18.42262 -10.24151,-19.55743 0,-1.59993 11.02038,-6.97398 16.87695,-8.22999 6.51771,-1.3978 11.1186,0.43053 13.45073,5.34513 2.15132,4.53357 2.1027,6.50382 -0.25591,10.37191 -3.30161,5.41459 -18.02642,14.37736 -19.83026,12.07038 z M 806.8916,189.20925 c -2.475,-4.52978 -4.63535,-8.7458 -4.80079,-9.36894 -0.38421,-1.44722 8.36439,-6.85638 13.65113,-8.44033 5.83849,-1.74925 9.83318,0.10362 12.31384,5.71156 1.69206,3.82518 1.74578,4.64149 0.50143,7.61964 -0.76652,1.83452 -2.86494,4.57349 -4.66317,6.0866 -3.24013,2.7264 -10.19224,6.66849 -11.7126,6.64147 -0.43441,-0.008 -2.81484,-3.72022 -5.28984,-8.25 z m 507.5054,47.90156 c 0.7638,-4.71856 2.3399,-17.02982 3.5023,-27.35836 2.2534,-20.0226 5.8498,-46.23959 6.4839,-47.26549 0.2107,-0.341 -4.3752,-2.9865 -10.191,-5.87888 l -10.5741,-5.25887 -13.1133,12.8852 c -7.2122,7.08686 -16.4877,16.00228 -20.612,19.81204 -12.3078,11.36905 -28.0012,26.77272 -28.0012,27.48431 0,0.36531 3.6698,2.34174 8.1552,4.39206 l 8.1552,3.72784 2.5669,-3.33868 c 1.4119,-1.83628 4.9802,-5.89447 7.9298,-9.01821 l 5.3629,-5.67951 11.165,5.47679 c 16.0866,7.89099 14.8237,5.87066 12.1017,19.35923 -1.2738,6.31234 -2.2307,11.48946 -2.1264,11.50471 0.1043,0.0152 4.0147,1.88698 8.6897,4.1594 4.675,2.27243 8.6387,4.00657 8.8083,3.85366 0.1696,-0.15292 0.9333,-4.13868 1.6971,-8.85724 z m -22.7554,-40.19892 c -4.8125,-2.4531 -8.75,-4.72744 -8.75,-5.05409 0,-0.73267 22.9213,-24.76754 24.0193,-25.18629 0.4353,-0.16598 0.4116,1.40902 -0.053,3.5 -0.4642,2.09098 -1.563,8.97678 -2.4417,15.30178 -1.9487,14.02647 -2.3592,16.01411 -3.294,15.94939 -0.402,-0.0278 -4.6684,-2.05769 -9.4809,-4.51079 z m -392.77721,13.43592 c 3.01003,-1.05606 5.87422,-2.32153 6.36487,-2.81218 0.52277,-0.52277 -1.6135,-7.2406 -5.16023,-16.22721 -7.53174,-19.08366 -13.89509,-36.32414 -18.20929,-49.33513 -1.82369,-5.5 -3.41815,-10.14307 -3.54324,-10.31793 -0.21503,-0.3006 -15.48184,4.81173 -16.31831,5.46443 -0.21637,0.16884 2.34269,7.17995 5.68681,15.58024 5.64108,14.17019 18.2066,48.14211 18.2066,49.22306 0,0.26135 0.94402,2.99831 2.09783,6.08213 1.65915,4.43448 2.44332,5.46641 3.75,4.93483 0.90869,-0.36968 4.11493,-1.53619 7.12496,-2.59224 z m 337.01591,-5.87452 c 3.5488,-9.13112 3.5542,-9 -0.3721,-9 -9.735,0 -21.2188,-4.50506 -26.3338,-10.33065 -4.8068,-5.47468 -6.6258,-11.4339 -6.0771,-19.9096 0.553,-8.54323 3.0856,-14.86268 8.2452,-20.57373 7.3483,-8.1337 18.5705,-9.32966 30.6947,-3.27115 3.4251,1.71159 6.5325,2.76843 6.9051,2.34855 0.3727,-0.41988 1.8402,-3.3538 3.2611,-6.51982 l 2.5834,-5.75641 -4.0285,-2.0552 c -5.6491,-2.88193 -18.2058,-5.93199 -24.4213,-5.93199 -15.7956,0 -32.8454,11.93375 -38.5752,27 -7.8919,20.75169 -0.3608,42.10125 18.1725,51.51596 6.8262,3.46765 22.3542,7.59271 26.8272,7.12675 0.7535,-0.0785 2.1569,-2.16771 3.1188,-4.64271 z m -298.70165,-4.49083 c 17.50438,-3.0525 29.60056,-9.51411 33.71281,-18.00888 3.91574,-8.08883 1.46453,-21.01766 -5.15549,-27.19251 -4.02933,-3.75837 -12.94718,-7.13386 -23.15335,-8.76376 -12.52757,-2.00062 -15.99947,-3.46025 -17.63763,-7.41511 -1.11275,-2.68642 -1.05581,-3.47627 0.41208,-5.71655 0.93677,-1.42969 3.60273,-3.43968 5.92436,-4.46665 4.81913,-2.13173 17.6679,-4.35899 21.2244,-3.67912 2.15957,0.41282 2.38473,0.11366 2.37476,-3.15526 -0.006,-1.98623 -0.29067,-5.30338 -0.63248,-7.37145 l -0.62148,-3.76011 -4.61751,0.59006 c -27.7378,3.54454 -40.26038,11.91964 -40.26038,26.92613 0,9.49489 5.27427,17.55733 13.83151,21.14336 1.75375,0.73494 8.42582,2.44551 14.82681,3.80127 6.40099,1.35577 13.06363,3.29754 14.80585,4.31506 5.94239,3.47054 6.15901,10.55657 0.43037,14.07796 -4.70883,2.89452 -15.15076,5.34717 -23.49263,5.51806 l -7.24096,0.14833 -0.009,7.25 -0.009,7.25 h 3.36901 c 1.85296,0 7.21607,-0.67087 11.91804,-1.49083 z m 222.26245,-15.25917 c 1.7845,-12.61342 8.6536,-52.20175 10.889,-62.75542 1.3833,-6.53091 2.3664,-12.023 2.1848,-12.20463 -0.7715,-0.77148 -15.8911,-3.24246 -16.717,-2.73203 -0.4985,0.30806 -0.9063,1.63319 -0.9063,2.94474 0,3.37394 -6.3759,41.00709 -10.1271,59.77375 -1.7344,8.67703 -2.8659,16.06393 -2.5145,16.41535 0.5409,0.54082 11.5806,2.84242 15.3303,3.19611 0.6849,0.0646 1.4736,-1.90112 1.8608,-4.63787 z m -140.4723,-1.74376 c 13.4325,-1.37157 25.1585,-2.49657 26.0576,-2.5 1.4024,-0.005 1.5613,-0.96617 1.1177,-6.75624 -0.2844,-3.7125 -0.5991,-6.854 -0.6993,-6.98111 -0.1001,-0.1271 -7.2723,0.68754 -15.9381,1.81032 -8.6658,1.12279 -16.7368,1.90179 -17.9355,1.73111 -1.9512,-0.2778 -2.3016,-1.25341 -3.3436,-9.31032 -0.6402,-4.95 -1.2027,-9.96683 -1.25,-11.14851 -0.093,-2.32166 -1.7105,-2.01471 20.7393,-3.93544 l 6.8253,-0.58395 -0.4382,-5.66605 c -0.241,-3.11633 -0.7435,-5.99968 -1.1167,-6.40746 -0.3732,-0.40777 -6.3926,0.009 -13.3766,0.92719 -6.9839,0.91774 -13.0132,1.35341 -13.3985,0.96817 -0.6182,-0.61817 -3.3264,-18.81118 -2.8843,-19.37558 0.096,-0.1219 7.7442,-0.76199 16.9972,-1.42242 l 16.8235,-1.2008 -0.6042,-6.46991 c -0.3323,-3.55845 -0.7667,-6.63245 -0.9653,-6.831113 -0.4065,-0.40642 -48.89636,4.521403 -49.39466,5.019773 -0.1758,0.17576 0.789,9.72603 2.1439,21.22283 1.355,11.4968 2.9708,28.10327 3.5908,36.90327 1.1215,15.91928 1.8074,22.5 2.345,22.5 0.1551,0 11.27216,-1.12219 24.70466,-2.49376 z m 109.9228,0.009 c 0,-0.26678 -1.6014,-5.27143 -3.5586,-11.12145 -5.1106,-15.27484 -8.9152,-22.78724 -13.5495,-26.75401 l -3.9887,-3.4142 4.5044,-2.18057 c 12.5437,-6.07226 16.8513,-22.67263 8.2758,-31.89203 -5.3563,-5.75847 -13.8198,-7.727573 -37.4334,-8.709273 -12.4228,-0.51645 -15.2506,-0.38458 -15.2532,0.7113 -0.016,6.614283 -2.3509,51.653833 -3.3175,63.990443 l -1.2259,15.64515 4.4129,0.60485 c 2.4271,0.33267 6.375,0.60485 8.7733,0.60485 h 4.3604 v -8.34912 c 0,-4.59202 0.291,-11.79202 0.6467,-16 l 0.6468,-7.65088 h 4.8854 c 6.5117,0 11.3326,2.1592 13.8204,6.18982 1.1237,1.8206 3.7749,8.71018 5.8915,15.31018 l 3.8485,12 7.3804,0.56984 c 4.0591,0.31341 8.1678,0.65091 9.1303,0.75 0.9625,0.0991 1.75,-0.0381 1.75,-0.3049 z m -44.75,-46.11242 c -0.9023,-0.41087 -1.25,-4.02275 -1.25,-12.98585 v -12.41697 l 6.75,0.006 c 8.4581,0.007 13.2618,1.31362 16.1562,4.39461 4.9114,5.22787 3.0452,15.03993 -3.5885,18.8683 -3.1633,1.82558 -15.5358,3.28693 -18.0677,2.13403 z"
       id="path217" />
  </g>
</svg>
